<svg width="18" height="18" viewBox="0 0 18 18" xmlns="http://www.w3.org/2000/svg">
<path d="M7.94507 0C3.77346 0.461159 0.461156 3.77353 0 7.94507H4.04508C4.44276 5.98591 5.98593 4.44276 7.94507 4.04509V0Z" />
<path d="M13.8451 7.94507C13.4474 5.98591 11.9042 4.44276 9.94507 4.04509V0C14.1167 0.461159 17.429 3.77353 17.8901 7.94507H13.8451Z" />
<path d="M9.94507 13.8451C11.9042 13.4474 13.4474 11.9042 13.8451 9.94507H17.8901C17.429 14.1166 14.1167 17.429 9.94507 17.8901V13.8451Z" />
<path d="M4.04508 9.94507C4.44276 11.9042 5.98593 13.4474 7.94507 13.8451V17.8901C3.77346 17.429 0.461156 14.1166 0 9.94507H4.04508Z" />
</svg>
