<svg width="23" height="23" viewBox="0 0 23 23" xmlns="http://www.w3.org/2000/svg">
<path fill-rule="evenodd" clip-rule="evenodd" d="M16.4286 23H6.57143C4.82858 23 3.1571 22.3174 1.92472 21.1024C0.69234 19.8874 0 18.2394 0 16.5211V6.47887C0 4.76057 0.69234 3.11264 1.92472 1.89762C3.1571 0.682594 4.82858 0 6.57143 0H16.4286C18.1714 0 19.8429 0.682594 21.0753 1.89762C22.3077 3.11264 23 4.76057 23 6.47887V16.5211C23 18.2394 22.3077 19.8874 21.0753 21.1024C19.8429 22.3174 18.1714 23 16.4286 23ZM20.8643 5.99296C20.8643 4.91902 20.4316 3.88906 19.6613 3.12967C18.8911 2.37028 17.8464 1.94366 16.7571 1.94366H6.07857C4.98929 1.94366 3.94463 2.37028 3.17439 3.12967C2.40415 3.88906 1.97143 4.91902 1.97143 5.99296V16.5211C1.97143 17.5951 2.40415 18.625 3.17439 19.3844C3.94463 20.1438 4.98929 20.5704 6.07857 20.5704H16.7571C17.8464 20.5704 18.8911 20.1438 19.6613 19.3844C20.4316 18.625 20.8643 17.5951 20.8643 16.5211V5.99296ZM17.5786 6.64085C17.2861 6.64085 17.0003 6.55535 16.7571 6.39517C16.514 6.23499 16.3245 6.00732 16.2125 5.74095C16.1006 5.47459 16.0714 5.18148 16.1284 4.89871C16.1855 4.61593 16.3263 4.35619 16.5331 4.15232C16.7398 3.94845 17.0033 3.80961 17.2901 3.75336C17.5769 3.69712 17.8742 3.72598 18.1444 3.83632C18.4146 3.94665 18.6455 4.13349 18.808 4.37322C18.9704 4.61295 19.0571 4.89478 19.0571 5.1831C19.0571 5.56972 18.9014 5.9405 18.6241 6.21388C18.3468 6.48726 17.9707 6.64085 17.5786 6.64085ZM11.4179 17.331C10.2319 17.331 9.07253 16.9843 8.08642 16.3346C7.10031 15.685 6.33174 14.7617 5.87789 13.6814C5.42403 12.6012 5.30527 11.4125 5.53664 10.2656C5.76801 9.11884 6.33912 8.06542 7.17773 7.23862C8.01635 6.41182 9.08481 5.84875 10.248 5.62064C11.4112 5.39252 12.6169 5.5096 13.7126 5.95707C14.8083 6.40453 15.7448 7.16228 16.4037 8.1345C17.0626 9.10672 17.4143 10.2497 17.4143 11.419C17.4143 12.987 16.7825 14.4907 15.658 15.5994C14.5334 16.7081 13.0082 17.331 11.4179 17.331ZM11.4179 7.61268C10.6543 7.61268 9.90785 7.83591 9.27296 8.25416C8.63807 8.6724 8.14323 9.26687 7.85102 9.96239C7.55881 10.6579 7.48236 11.4232 7.63132 12.1616C7.78029 12.9 8.14798 13.5782 8.68791 14.1105C9.22784 14.6428 9.91577 15.0053 10.6647 15.1522C11.4136 15.2991 12.1898 15.2237 12.8953 14.9356C13.6007 14.6475 14.2037 14.1597 14.6279 13.5337C15.0521 12.9078 15.2786 12.1718 15.2786 11.419C15.2786 10.4095 14.8718 9.44135 14.1478 8.72753C13.4238 8.0137 12.4418 7.61268 11.4179 7.61268Z" />
</svg>
