<svg width="310" height="68" viewBox="0 0 310 68" fill="none" xmlns="http://www.w3.org/2000/svg">
<rect width="310" height="67.027" fill="white"/>
<path fill-rule="evenodd" clip-rule="evenodd" d="M183.042 23.7907C178.344 23.7907 174.536 27.5947 174.536 32.2871V47.8679C174.536 52.5603 178.344 56.3643 183.042 56.3643H196.719C201.417 56.3643 205.225 52.5603 205.225 47.8679V32.2871C205.225 27.5947 201.417 23.7907 196.719 23.7907H183.042ZM193.887 32.9061H185.879V47.2489H193.887V32.9061Z" fill="#111827"/>
<path fill-rule="evenodd" clip-rule="evenodd" d="M50.7699 32.2871C50.7699 27.5947 54.5782 23.7907 59.276 23.7907H72.9535C77.6513 23.7907 81.4596 27.5947 81.4596 32.2871V35.0527C81.4596 39.7451 77.6513 43.5491 72.9535 43.5491H62.1137V47.2489H79.241V56.3643H59.2765C54.5787 56.3643 50.7704 52.5603 50.7704 47.8679L50.7699 32.2871ZM70.12 31.0951H62.1104V36.2447H70.12V31.0951Z" fill="#111827"/>
<path fill-rule="evenodd" clip-rule="evenodd" d="M251.975 23.7907C247.277 23.7907 243.469 27.5947 243.469 32.2871V47.8679C243.469 52.5603 247.277 56.3643 251.975 56.3643H265.652C270.35 56.3643 274.158 52.5603 274.158 47.8679V32.2871C274.158 27.5947 270.35 23.7907 265.652 23.7907H251.975ZM262.82 32.9061H254.812V47.2489H262.82V32.9061Z" fill="#111827"/>
<path d="M277.935 47.8679C277.935 52.5603 281.743 56.3643 286.441 56.3643H298.48V47.2489H289.278V32.9061H298.48V23.7907H289.277V16.0563H277.935V47.8679Z" fill="#111827"/>
<path fill-rule="evenodd" clip-rule="evenodd" d="M217.508 56.3643C212.81 56.3643 209.002 52.5603 209.002 47.8679V10.6631H220.344V23.7907H231.186C235.884 23.7907 239.692 27.5947 239.692 32.2871V47.8679C239.692 52.5603 235.884 56.3643 231.186 56.3643H217.508ZM228.353 32.9061H220.345V47.2489H228.353V32.9061Z" fill="#111827"/>
<path fill-rule="evenodd" clip-rule="evenodd" d="M107.42 56.3643C112.118 56.3643 115.926 52.5603 115.926 47.8679V10.6631H104.585V23.7907H93.7425C89.0447 23.7907 85.2364 27.5947 85.2364 32.2871V47.8679C85.2364 52.5603 89.0447 56.3643 93.7425 56.3643H107.42ZM96.5751 32.9061H104.583V47.2489H96.5751V32.9061Z" fill="#111827"/>
<path fill-rule="evenodd" clip-rule="evenodd" d="M11.5215 19.1595C11.5215 14.467 15.3298 10.6631 20.0276 10.6631H38.487C43.1848 10.6631 46.9931 14.467 46.9931 19.1595V33.3892C46.9931 38.0817 43.1848 41.8856 38.487 41.8856H38.2597L46.9933 56.3643H34.5258L25.7922 41.8856H23.989V56.3643H11.5215V19.1595ZM34.5191 21.3279H23.9954V31.2208H34.5191V21.3279Z" fill="#111827"/>
<path fill-rule="evenodd" clip-rule="evenodd" d="M135.287 19.1595C135.287 14.467 139.096 10.6631 143.793 10.6631H162.253C166.951 10.6631 170.759 14.467 170.759 19.1595V33.3892C170.759 38.0817 166.951 41.8856 162.253 41.8856H162.025L170.759 56.3643H158.292L149.558 41.8856H147.755V56.3643H135.287V19.1595ZM158.285 21.3279H147.761V31.2208H158.285V21.3279Z" fill="#111827"/>
</svg>
