<svg width="106" height="90" viewBox="0 0 106 90" fill="none" xmlns="http://www.w3.org/2000/svg">
<rect x="11.9961" y="13" width="91.9863" height="75.1147" fill="#E8EDEE"/>
<path d="M67.1016 88.1147C89.5371 70.7529 103.982 43.5635 103.982 13V88.1147H67.1016Z" fill="#9B9EA3"/>
<path d="M10 6C10 2.68629 12.6863 0 16 0H100C103.314 0 106 2.68629 106 6V13H10V6Z" fill="#60646D"/>
<path d="M4 88C4 89.1046 3.10457 90 2 90C0.89543 90 0 89.1046 0 88C0 86.8954 0.89543 86 2 86C3.10457 86 4 86.8954 4 88Z" fill="#111827"/>
<path d="M20 13C20 14.1046 19.1046 15 18 15C16.8954 15 16 14.1046 16 13C16 11.8954 16.8954 11 18 11C19.1046 11 20 11.8954 20 13Z" fill="#111827"/>
<path d="M10 5C10 2.23877 12.2383 0 15 0H101C103.762 0 106 2.23877 106 5V85C106 87.7612 103.762 90 101 90H8C6.89543 90 6 89.1046 6 88C6 86.8954 6.89543 86 8 86H100C101.105 86 102 85.1045 102 84V15H24C22.8954 15 22 14.1046 22 13C22 11.8954 22.8954 11 24 11H102V6C102 4.89551 101.105 4 100 4H16C15.4297 4 14.916 4.23828 14.5508 4.62061C14.209 4.97949 14 5.46533 14 6V81C14 82.1046 13.1046 83 12 83C10.8954 83 10 82.1046 10 81V5Z" fill="#111827"/>
<circle cx="81.8684" cy="7.47583" r="1.88989" fill="#42B05C"/>
<circle cx="89.3528" cy="7.47583" r="1.88989" fill="#ECBA16"/>
<circle cx="96.8372" cy="7.47583" r="1.88989" fill="#ED7161"/>
<circle cx="52.7322" cy="34.2429" r="8.95874" fill="#0588E2"/>
<path d="M55.1602 42.8682C56.5918 40.8682 57.4355 38.418 57.4355 35.7705C57.4355 31.3623 55.0977 27.5 51.5938 25.3555C51.9668 25.3086 52.3457 25.2842 52.7305 25.2842C57.6777 25.2842 61.6895 29.2949 61.6895 34.2432C61.6895 38.3491 58.9277 41.8091 55.1602 42.8682Z" fill="#0075D3"/>
<path d="M53.2349 27.5679C49.5671 27.5679 46.5938 30.5412 46.5938 34.209C46.5938 37.8768 49.5671 40.8501 53.2349 40.8501C55.368 40.8501 57.2658 39.8466 58.4841 38.2778C59.3175 37.2047 59.8276 35.8726 59.8727 34.4199C59.907 33.3158 60.8297 32.4486 61.9338 32.4829C63.0378 32.5171 63.905 33.4399 63.8708 34.5439C63.8205 36.1639 63.4075 37.6941 62.7109 39.0543L68.1898 43.4114C69.0544 44.0989 69.1979 45.3571 68.5103 46.2216C67.8228 47.0861 66.5647 47.2296 65.7001 46.5421L60.2514 42.209C58.3796 43.8516 55.9236 44.8501 53.2349 44.8501C47.3579 44.8501 42.5938 40.0859 42.5938 34.209C42.5938 28.3321 47.3579 23.5679 53.2349 23.5679C56.0202 23.5679 58.5595 24.6407 60.4549 26.392C61.2662 27.1416 61.3161 28.4069 60.5665 29.2182C59.8169 30.0295 58.5516 30.0795 57.7403 29.3299C56.5548 28.2345 54.9749 27.5679 53.2349 27.5679Z" fill="#111827"/>
<rect x="24.4375" y="54.1816" width="66.0586" height="15.0957" rx="7.54785" fill="#FFC343"/>
<path d="M24.6133 63.375C25.3633 66.752 28.3789 69.2773 31.9844 69.2773H82.9453C87.1152 69.2773 90.4941 65.8979 90.4941 61.7295C90.4941 57.561 87.1152 54.1816 82.9453 54.1816C83.0625 54.7114 83.123 55.2622 83.123 55.8271C83.123 59.9956 79.7441 63.375 75.5742 63.375H24.6133Z" fill="#FFA221"/>
<path fill-rule="evenodd" clip-rule="evenodd" d="M26.6484 61.5688C26.6484 58.7148 28.9629 56.4009 31.8164 56.4009C32.9219 56.4009 33.8164 55.5054 33.8164 54.4009C33.8164 53.2964 32.9219 52.4009 31.8164 52.4009C26.7539 52.4009 22.6484 56.5059 22.6484 61.5688V61.9546C22.6484 67.231 26.9258 71.5083 32.2031 71.5083H75.2969C75.9395 71.5083 76.5117 71.2046 76.8789 70.7324C77.1406 70.394 77.2969 69.9692 77.2969 69.5083C77.2969 68.5669 76.6465 67.7773 75.7695 67.5645C75.6172 67.5278 75.459 67.5083 75.2969 67.5083H32.2031C29.1348 67.5083 26.6484 65.022 26.6484 61.9546V61.5688ZM40.9785 52.4009C39.873 52.4009 38.9785 53.2964 38.9785 54.4009C38.9785 55.5054 39.873 56.4009 40.9785 56.4009H83.7773C86.8438 56.4009 89.332 58.8872 89.332 61.9546V62.3296C89.332 65.1899 87.0117 67.5083 84.1523 67.5083C83.0488 67.5083 82.1523 68.4038 82.1523 69.5083C82.1523 70.6128 83.0488 71.5083 84.1523 71.5083C89.2227 71.5083 93.332 67.3989 93.332 62.3296V61.9546C93.332 56.6782 89.0547 52.4009 83.7773 52.4009H40.9785ZM34.709 60.5781C34.709 59.4736 33.8145 58.5781 32.709 58.5781C32.1152 58.5781 31.5801 58.8379 31.2148 59.25C30.9004 59.6035 30.709 60.0684 30.709 60.5781V63.1992C30.709 64.3042 31.6055 65.1992 32.709 65.1992C33.8145 65.1992 34.709 64.3042 34.709 63.1992V60.5781Z" fill="#111827"/>
</svg>
