<svg width="106" height="90" viewBox="0 0 106 90" fill="none" xmlns="http://www.w3.org/2000/svg">
<rect x="11.9961" y="13" width="91.9863" height="75.1147" fill="#E8EDEE"/>
<path d="M67.1016 88.1147C89.5371 70.7529 103.982 43.5635 103.982 13V88.1147H67.1016Z" fill="#9B9EA3"/>
<path d="M10 6C10 2.68629 12.6863 0 16 0H100C103.314 0 106 2.68629 106 6V13H10V6Z" fill="#60646D"/>
<rect x="30.4648" y="37.1143" width="54" height="33" fill="#0588E2"/>
<path d="M4 88C4 89.1046 3.10457 90 2 90C0.89543 90 0 89.1046 0 88C0 86.8954 0.89543 86 2 86C3.10457 86 4 86.8954 4 88Z" fill="#111827"/>
<path d="M20 13C20 14.1046 19.1046 15 18 15C16.8954 15 16 14.1046 16 13C16 11.8954 16.8954 11 18 11C19.1046 11 20 11.8954 20 13Z" fill="#111827"/>
<path d="M10 5C10 2.23877 12.2383 0 15 0H101C103.762 0 106 2.23877 106 5V85C106 87.7612 103.762 90 101 90H8C6.89543 90 6 89.1046 6 88C6 86.8954 6.89543 86 8 86H100C101.105 86 102 85.1045 102 84V15H24C22.8954 15 22 14.1046 22 13C22 11.8954 22.8954 11 24 11H102V6C102 4.89551 101.105 4 100 4H16C15.4297 4 14.916 4.23828 14.5508 4.62061C14.209 4.97949 14 5.46533 14 6V81C14 82.1046 13.1046 83 12 83C10.8954 83 10 82.1046 10 81V5Z" fill="#111827"/>
<path d="M28.4473 34.1143C28.4473 30.8005 31.1336 28.1143 34.4473 28.1143H81.4648C84.7786 28.1143 87.4648 30.8005 87.4648 34.1143V37.9058H28.4473V34.1143Z" fill="#FE93D3"/>
<path fill-rule="evenodd" clip-rule="evenodd" d="M73.418 70.1143C77.8184 64.8276 80.4648 58.0303 80.4648 50.6143C80.4648 45.7671 79.334 41.1841 77.3223 37.1143H84.4648V70.1143H73.418Z" fill="#0075D3"/>
<path d="M77.3223 37.1143H87.4651V34.1143C87.4651 30.8005 84.7788 28.1143 81.4651 28.1143H70.5566C73.3326 30.6562 75.6367 33.705 77.3223 37.1143Z" fill="#FE73C5"/>
<path d="M33.4648 28.1143C30.7031 28.1143 28.4648 30.353 28.4648 33.1143V43.1143C28.4648 44.2188 29.3603 45.1143 30.4648 45.1143C31.5694 45.1143 32.4648 44.2188 32.4648 43.1143V41.1143H83.4648V37.1143H32.4648V34.1143C32.4648 33.0098 33.3594 32.1143 34.4648 32.1143H81.4648C82.5703 32.1143 83.4648 33.0098 83.4648 34.1143V37.1143V41.1143V67.1143C83.4648 68.2188 82.5703 69.1143 81.4648 69.1143H34.4648C33.3594 69.1143 32.4648 68.2188 32.4648 67.1143V51.1143C32.4648 50.0097 31.5694 49.1143 30.4648 49.1143C29.3603 49.1143 28.4648 50.0097 28.4648 51.1143V68.1143C28.4648 70.8755 30.7031 73.1143 33.4648 73.1143H82.4648C85.2266 73.1143 87.4648 70.8755 87.4648 68.1143V33.1143C87.4648 30.353 85.2266 28.1143 82.4648 28.1143H33.4648Z" fill="#111827"/>
<path d="M60.9099 43.6061C61.3652 42.5998 62.5502 42.1532 63.5565 42.6085C64.5628 43.0639 65.0095 44.2488 64.5541 45.2552L55.2303 65.8603C54.7749 66.8666 53.5899 67.3133 52.5836 66.8579C51.5773 66.4025 51.1306 65.2176 51.586 64.2113L60.9099 43.6061Z" fill="#111827"/>
<path d="M46.0291 45.0288L38.5639 54.1763C37.9887 54.881 37.9737 55.8598 38.4643 56.5733L38.6679 56.8235L46.0291 65.8621C46.7275 66.7179 47.9874 66.8454 48.8432 66.1471C49.6989 65.4487 49.8265 64.1888 49.1281 63.333L42.6911 55.4455L49.1281 47.5579C49.8265 46.7021 49.6989 45.4423 48.8432 44.7439C47.9874 44.0455 46.7275 44.173 46.0291 45.0288Z" fill="#111827"/>
<path d="M70.1115 45.0288L77.5768 54.1763C78.1519 54.881 78.1669 55.8598 77.6764 56.5733L77.4727 56.8235L70.1115 65.8621C69.4131 66.7179 68.1532 66.8454 67.2975 66.1471C66.4417 65.4487 66.3141 64.1888 67.0125 63.333L73.4496 55.4455L67.0125 47.5579C66.3141 46.7021 66.4417 45.4423 67.2975 44.7439C68.1532 44.0455 69.4131 44.173 70.1115 45.0288Z" fill="#111827"/>
<circle cx="81.8684" cy="7.47583" r="1.88989" fill="#42B05C"/>
<circle cx="89.3528" cy="7.47583" r="1.88989" fill="#ECBA16"/>
<circle cx="96.8372" cy="7.47583" r="1.88989" fill="#ED7161"/>
</svg>
