<svg width="106" height="90" viewBox="0 0 106 90" fill="none" xmlns="http://www.w3.org/2000/svg">
<rect x="11.9961" y="13" width="91.9863" height="75.1147" fill="#E8EDEE"/>
<path d="M67.1016 88.1147C89.5371 70.7529 103.982 43.5635 103.982 13V88.1147H67.1016Z" fill="#9B9EA3"/>
<path d="M10 6C10 2.68629 12.6863 0 16 0H100C103.314 0 106 2.68629 106 6V13H10V6Z" fill="#60646D"/>
<path d="M4 88C4 89.1046 3.10457 90 2 90C0.89543 90 0 89.1046 0 88C0 86.8954 0.89543 86 2 86C3.10457 86 4 86.8954 4 88Z" fill="#111827"/>
<path d="M20 13C20 14.1046 19.1046 15 18 15C16.8954 15 16 14.1046 16 13C16 11.8954 16.8954 11 18 11C19.1046 11 20 11.8954 20 13Z" fill="#111827"/>
<path d="M10 5C10 2.23877 12.2383 0 15 0H101C103.762 0 106 2.23877 106 5V85C106 87.7612 103.762 90 101 90H8C6.89543 90 6 89.1046 6 88C6 86.8954 6.89543 86 8 86H100C101.105 86 102 85.1045 102 84V15H24C22.8954 15 22 14.1046 22 13C22 11.8954 22.8954 11 24 11H102V6C102 4.89551 101.105 4 100 4H16C15.4297 4 14.916 4.23828 14.5508 4.62061C14.209 4.97949 14 5.46533 14 6V81C14 82.1046 13.1046 83 12 83C10.8954 83 10 82.1046 10 81V5Z" fill="#111827"/>
<circle cx="81.8684" cy="7.47583" r="1.88989" fill="#42B05C"/>
<circle cx="89.3528" cy="7.47583" r="1.88989" fill="#ECBA16"/>
<circle cx="96.8372" cy="7.47583" r="1.88989" fill="#ED7161"/>
<path d="M56.7012 33.1816C55.2568 31.6958 52.8814 31.6623 51.3957 33.1068L48.9188 35.5148L37.2831 46.827C36.062 48.0141 35.8218 49.8302 36.577 51.2643C36.7406 51.5751 36.951 51.8679 37.2083 52.1326C38.6527 53.6183 41.0281 53.6518 42.5139 52.2074L53.4543 41.5711C53.8493 41.1871 54.4805 41.1948 54.8659 41.5884L59.275 46.0913C60.6646 47.5105 62.9416 47.5345 64.3608 46.1449L64.4195 46.0894L73.3506 36.9755C73.4812 36.8422 73.6966 36.845 73.8237 36.9816L77.025 40.4208C77.6022 41.041 78.6408 40.7073 78.7488 39.8669L80.5222 26.0672C80.6061 25.4136 80.0461 24.8589 79.3933 24.9491L65.5069 26.8692C64.6616 26.986 64.3416 28.0398 64.9793 28.6069L68.1964 31.4683C68.3361 31.5925 68.3435 31.8083 68.2127 31.9417L61.8473 38.4374L56.7012 33.1816Z" fill="#FE93D3"/>
<path d="M42.5139 52.2073C41.0281 53.6518 38.6527 53.6183 37.2083 52.1325C36.951 51.8679 36.7406 51.575 36.577 51.2642C35.8218 49.8301 36.062 48.0141 37.2831 46.8269L48.9188 35.5147L51.3957 33.1067C52.4136 32.117 53.8493 31.8212 55.1169 32.2109C53.8382 35.736 53.6778 37.8229 55.1169 41.8448L54.8659 41.5884C54.4805 41.1948 53.8493 41.187 53.4543 41.571L42.5139 52.2073Z" fill="#FE73C5"/>
<path d="M67.9286 28.5534L78.3719 27.1094L77.0369 37.498L75.2879 35.6189C74.3836 34.6475 72.8513 34.6277 71.9223 35.5757L63.9268 43.7348C63.1537 44.5237 63.1666 45.79 63.9555 46.5631C64.7444 47.3362 66.0107 47.3234 66.7838 46.5344L73.5533 39.6263L75.5612 41.7835C77.2929 43.6439 80.4087 42.6428 80.7327 40.1219L82.506 26.3221C82.758 24.3614 81.0778 22.6972 79.1196 22.968L65.2331 24.888C62.6972 25.2386 61.7374 28.4 63.6503 30.1014L65.5555 31.7959L61.8481 35.5792L58.1354 31.7874L58.1326 31.7846C55.918 29.5096 52.2785 29.4593 50.0017 31.6727L36.9438 44.3676C36.1518 45.1376 36.1339 46.4038 36.9039 47.1958C37.6739 47.9877 38.9401 48.0056 39.732 47.2356L52.79 34.5408C53.4837 33.8663 54.5929 33.8819 55.2674 34.5757L55.2724 34.5808L59.7042 39.1071C60.8803 40.3083 62.8138 40.3087 63.9905 39.108L69.6413 33.3415C70.5718 32.392 70.5191 30.8574 69.5258 29.9739L67.9286 28.5534Z" fill="#111827"/>
<path d="M57.1562 46.7859L54.1342 43.6997L43.9082 53.6414C41.6691 55.8182 38.1128 55.8055 35.8883 53.6406C35.0967 52.8702 35.0796 51.604 35.8499 50.8125C36.6203 50.0209 37.8865 50.0037 38.6781 50.7741C39.3546 51.4325 40.4382 51.4361 41.1199 50.7733L52.0604 40.1371C53.2453 38.985 55.1388 39.0083 56.2951 40.1892L60.0142 43.9874C60.787 44.7767 60.7737 46.0429 59.9844 46.8157C59.1952 47.5885 57.9289 47.5752 57.1562 46.7859Z" fill="#111827"/>
<path d="M79.6016 51.79H74.3457C73.2411 51.79 72.3457 52.6855 72.3457 53.79V61.2219V74.1758C72.3457 75.2804 73.2411 76.1758 74.3457 76.1758H79.6016C80.7061 76.1758 81.6016 75.2803 81.6016 74.1758V53.79C81.6016 52.6855 80.7061 51.79 79.6016 51.79Z" fill="#0588E2"/>
<path d="M74.3457 51.79H79.6016C80.7061 51.79 81.6016 52.6855 81.6016 53.79V57.5677C80.8635 57.3402 80.0793 57.2178 79.2666 57.2178C76.2906 57.2178 73.6981 58.8598 72.3457 61.2873V53.79C72.3457 52.6855 73.2411 51.79 74.3457 51.79Z" fill="#0075D3"/>
<path fill-rule="evenodd" clip-rule="evenodd" d="M74.3457 49.79C72.1367 49.79 70.3457 51.5811 70.3457 53.79V53.8257C70.3457 54.9302 71.2402 55.8257 72.3457 55.8257C73.4512 55.8257 74.3457 54.9302 74.3457 53.8257V53.79H79.6016V74.1758H74.3457V61.2217C74.3457 60.1172 73.4512 59.2217 72.3457 59.2217C71.2402 59.2217 70.3457 60.1172 70.3457 61.2217V74.1758C70.3457 76.3848 72.1367 78.1758 74.3457 78.1758H79.6016C81.8105 78.1758 83.6016 76.3848 83.6016 74.1758V53.79C83.6016 51.5811 81.8105 49.79 79.6016 49.79H74.3457Z" fill="#111827"/>
<path d="M60.7715 58.79H55.5156C54.4111 58.79 53.5156 59.6855 53.5156 60.79V68.2219V74.1758C53.5156 75.2803 54.4111 76.1758 55.5156 76.1758H60.7715C61.8761 76.1758 62.7715 75.2804 62.7715 74.1758V60.79C62.7715 59.6855 61.8761 58.79 60.7715 58.79Z" fill="#0588E2"/>
<path d="M55.5156 58.79H60.7715C61.8761 58.79 62.7715 59.6855 62.7715 60.79V64.5677C62.0334 64.3402 61.2493 64.2178 60.4365 64.2178C57.4605 64.2178 54.868 65.8598 53.5156 68.2873V60.79C53.5156 59.6855 54.4111 58.79 55.5156 58.79Z" fill="#0075D3"/>
<path fill-rule="evenodd" clip-rule="evenodd" d="M55.5156 56.79C53.3066 56.79 51.5156 58.5811 51.5156 60.79V60.8257C51.5156 61.9302 52.4102 62.8257 53.5156 62.8257C54.6211 62.8257 55.5156 61.9302 55.5156 60.8257V60.79H60.7715V74.1758H55.5156V68.2217C55.5156 67.1172 54.6211 66.2217 53.5156 66.2217C52.4102 66.2217 51.5156 67.1172 51.5156 68.2217V74.1758C51.5156 76.3848 53.3066 78.1758 55.5156 78.1758H60.7715C62.9805 78.1758 64.7715 76.3848 64.7715 74.1758V60.79C64.7715 58.5811 62.9805 56.79 60.7715 56.79H55.5156Z" fill="#111827"/>
<path d="M41.6309 63.79H36.375C35.2704 63.79 34.375 64.6855 34.375 65.79V73.2219V74.1758C34.375 75.2804 35.2704 76.1758 36.375 76.1758H41.6309C42.7354 76.1758 43.6309 75.2804 43.6309 74.1758V65.79C43.6309 64.6855 42.7354 63.79 41.6309 63.79Z" fill="#FFC343"/>
<path d="M36.375 63.79H41.6309C42.7354 63.79 43.6309 64.6855 43.6309 65.79V69.5677C42.8928 69.3402 42.1086 69.2178 41.2959 69.2178C38.3199 69.2178 35.7274 70.8598 34.375 73.2873V65.79C34.375 64.6855 35.2704 63.79 36.375 63.79Z" fill="#FFA221"/>
<path fill-rule="evenodd" clip-rule="evenodd" d="M36.375 61.79C34.166 61.79 32.375 63.5811 32.375 65.79V65.8257C32.375 66.9302 33.2695 67.8257 34.375 67.8257C35.4805 67.8257 36.375 66.9302 36.375 65.8257V65.79H41.6309V74.1758H36.375V73.2217C36.375 72.1172 35.4805 71.2217 34.375 71.2217C33.2695 71.2217 32.375 72.1172 32.375 73.2217V74.1758C32.375 76.3848 34.166 78.1758 36.375 78.1758H41.6309C43.8398 78.1758 45.6309 76.3848 45.6309 74.1758V65.79C45.6309 63.5811 43.8398 61.79 41.6309 61.79H36.375Z" fill="#111827"/>
</svg>
