<svg width="185" height="40" viewBox="0 0 185 40" fill="none" xmlns="http://www.w3.org/2000/svg">
<rect width="185" height="40" fill="#FF6472"/>
<path fill-rule="evenodd" clip-rule="evenodd" d="M109.234 14.1976C106.43 14.1976 104.158 16.4677 104.158 19.268V28.5662C104.158 31.3665 106.43 33.6366 109.234 33.6366H117.396C120.2 33.6366 122.472 31.3665 122.472 28.5662V19.268C122.472 16.4677 120.2 14.1976 117.396 14.1976H109.234ZM115.706 19.6374H110.927V28.1968H115.706V19.6374Z" fill="#111827"/>
<path fill-rule="evenodd" clip-rule="evenodd" d="M30.2974 19.268C30.2974 16.4677 32.5701 14.1976 35.3737 14.1976H43.536C46.3396 14.1976 48.6123 16.4677 48.6123 19.268V20.9184C48.6123 23.7188 46.3396 25.9889 43.536 25.9889H37.0671V28.1968H47.2883V33.6366H35.3739C32.5704 33.6366 30.2977 31.3665 30.2977 28.5662L30.2974 19.268ZM41.8451 18.5567H37.0652V21.6298H41.8451V18.5567Z" fill="#111827"/>
<path fill-rule="evenodd" clip-rule="evenodd" d="M150.371 14.1976C147.568 14.1976 145.295 16.4677 145.295 19.268V28.5662C145.295 31.3665 147.568 33.6366 150.371 33.6366H158.534C161.337 33.6366 163.61 31.3665 163.61 28.5662V19.268C163.61 16.4677 161.337 14.1976 158.534 14.1976H150.371ZM156.843 19.6374H152.064V28.1968H156.843V19.6374Z" fill="#111827"/>
<path d="M165.864 28.5662C165.864 31.3665 168.136 33.6367 170.94 33.6367H178.124V28.1968H172.633V19.6374H178.124V14.1976H172.632V9.58187H165.864V28.5662Z" fill="#111827"/>
<path fill-rule="evenodd" clip-rule="evenodd" d="M129.803 33.6367C126.999 33.6367 124.726 31.3665 124.726 28.5662V6.36335H131.495V14.1976H137.965C140.768 14.1976 143.041 16.4677 143.041 19.268V28.5662C143.041 31.3665 140.768 33.6367 137.965 33.6367H129.803ZM136.275 19.6374H131.496V28.1968H136.275V19.6374Z" fill="#111827"/>
<path fill-rule="evenodd" clip-rule="evenodd" d="M64.1047 33.6367C66.9083 33.6367 69.181 31.3665 69.181 28.5662V6.36335H62.4127V14.1976H55.9424C53.1388 14.1976 50.8661 16.4677 50.8661 19.268V28.5662C50.8661 31.3665 53.1388 33.6367 55.9424 33.6367H64.1047ZM57.6328 19.6374H62.4116V28.1968H57.6328V19.6374Z" fill="#111827"/>
<path fill-rule="evenodd" clip-rule="evenodd" d="M6.875 11.4338C6.875 8.63345 9.1477 6.36335 11.9512 6.36335H22.9673C25.7708 6.36335 28.0435 8.63345 28.0435 11.4338V19.9257C28.0435 22.726 25.7708 24.9961 22.9673 24.9961H22.8316L28.0436 33.6367H20.6034L15.3914 24.9961H14.3153V33.6367H6.875V11.4338ZM20.5994 12.7279H14.3191V18.6316H20.5994V12.7279Z" fill="#111827"/>
<path fill-rule="evenodd" clip-rule="evenodd" d="M80.7352 11.4338C80.7352 8.63345 83.0079 6.36335 85.8114 6.36335H96.8275C99.631 6.36335 101.904 8.63345 101.904 11.4338V19.9257C101.904 22.726 99.631 24.9961 96.8275 24.9961H96.6919L101.904 33.6367H94.4636L89.2516 24.9961H88.1755V33.6367H80.7352V11.4338ZM94.4596 12.7279H88.1793V18.6316H94.4596V12.7279Z" fill="#111827"/>
</svg>
