<svg width="528" height="91" viewBox="0 0 528 91" fill="none" xmlns="http://www.w3.org/2000/svg">
<mask id="path-1-outside-1_1234_786" maskUnits="userSpaceOnUse" x="0" y="0" width="528" height="91" fill="black">
<rect fill="white" width="528" height="91"/>
<path fill-rule="evenodd" clip-rule="evenodd" d="M314.813 27.8417C306.301 27.8417 299.399 34.7502 299.399 43.2724V71.5693C299.399 80.0914 306.301 87 314.813 87H339.599C348.111 87 355.013 80.0914 355.013 71.5693V43.2724C355.013 34.7502 348.112 27.8417 339.599 27.8417H314.813ZM334.466 44.3965H319.955V70.4451H334.466V44.3965Z"/>
<path fill-rule="evenodd" clip-rule="evenodd" d="M75.1224 43.2724C75.1224 34.7502 82.0235 27.8417 90.5364 27.8417H115.322C123.834 27.8417 130.735 34.7502 130.735 43.2724V48.2951C130.735 56.8172 123.834 63.7257 115.322 63.7257H95.6786V70.4451H126.715V87H90.5372C82.0243 87 75.1232 80.0914 75.1232 71.5693L75.1224 43.2724ZM110.187 41.1075H95.6727V50.4599H110.187V41.1075Z"/>
<path fill-rule="evenodd" clip-rule="evenodd" d="M439.728 27.8417C431.215 27.8417 424.314 34.7502 424.314 43.2724V71.5693C424.314 80.0914 431.215 87 439.728 87H464.513C473.026 87 479.927 80.0914 479.927 71.5693V43.2724C479.927 34.7502 473.026 27.8417 464.513 27.8417H439.728ZM459.38 44.3965H444.869V70.4451H459.38V44.3965Z"/>
<path d="M486.771 71.5693C486.771 80.0914 493.672 87 502.185 87H524V70.4452H507.326V44.3966H524V27.8417H507.323V13.7948H486.771V71.5693Z"/>
<path fill-rule="evenodd" clip-rule="evenodd" d="M377.271 87C368.758 87 361.857 80.0914 361.857 71.5693V4H382.409V27.8417H402.056C410.569 27.8417 417.47 34.7503 417.47 43.2724V71.5693C417.47 80.0914 410.569 87 402.056 87H377.271ZM396.923 44.3966H382.412V70.4452H396.923V44.3966Z"/>
<path fill-rule="evenodd" clip-rule="evenodd" d="M177.779 87C186.291 87 193.193 80.0914 193.193 71.5693V4H172.641V27.8417H152.993C144.481 27.8417 137.579 34.7503 137.579 43.2724V71.5693C137.579 80.0914 144.481 87 152.993 87H177.779ZM158.126 44.3966H172.637V70.4452H158.126V44.3966Z"/>
<path fill-rule="evenodd" clip-rule="evenodd" d="M4 19.4306C4 10.9085 10.9011 4 19.414 4H52.8645C61.3774 4 68.2784 10.9085 68.2784 19.4307V45.274C68.2784 53.7961 61.3774 60.7046 52.8645 60.7046H52.4525L68.2787 87H45.6863L29.86 60.7046H26.5925V87H4V19.4306ZM45.6743 23.3689H26.6042V41.3357H45.6743V23.3689Z"/>
<path fill-rule="evenodd" clip-rule="evenodd" d="M228.277 19.4306C228.277 10.9085 235.178 4 243.691 4H277.142C285.654 4 292.556 10.9085 292.556 19.4307V45.274C292.556 53.7961 285.654 60.7046 277.142 60.7046H276.73L292.556 87H269.963L254.137 60.7046H250.87V87H228.277V19.4306ZM269.951 23.3689H250.881V41.3357H269.951V23.3689Z"/>
</mask>
<path fill-rule="evenodd" clip-rule="evenodd" d="M314.813 27.8417C306.301 27.8417 299.399 34.7502 299.399 43.2724V71.5693C299.399 80.0914 306.301 87 314.813 87H339.599C348.111 87 355.013 80.0914 355.013 71.5693V43.2724C355.013 34.7502 348.112 27.8417 339.599 27.8417H314.813ZM334.466 44.3965H319.955V70.4451H334.466V44.3965Z" fill="#F9F9F9"/>
<path fill-rule="evenodd" clip-rule="evenodd" d="M75.1224 43.2724C75.1224 34.7502 82.0235 27.8417 90.5364 27.8417H115.322C123.834 27.8417 130.735 34.7502 130.735 43.2724V48.2951C130.735 56.8172 123.834 63.7257 115.322 63.7257H95.6786V70.4451H126.715V87H90.5372C82.0243 87 75.1232 80.0914 75.1232 71.5693L75.1224 43.2724ZM110.187 41.1075H95.6727V50.4599H110.187V41.1075Z" fill="#F9F9F9"/>
<path fill-rule="evenodd" clip-rule="evenodd" d="M439.728 27.8417C431.215 27.8417 424.314 34.7502 424.314 43.2724V71.5693C424.314 80.0914 431.215 87 439.728 87H464.513C473.026 87 479.927 80.0914 479.927 71.5693V43.2724C479.927 34.7502 473.026 27.8417 464.513 27.8417H439.728ZM459.38 44.3965H444.869V70.4451H459.38V44.3965Z" fill="#F9F9F9"/>
<path d="M486.771 71.5693C486.771 80.0914 493.672 87 502.185 87H524V70.4452H507.326V44.3966H524V27.8417H507.323V13.7948H486.771V71.5693Z" fill="#F9F9F9"/>
<path fill-rule="evenodd" clip-rule="evenodd" d="M377.271 87C368.758 87 361.857 80.0914 361.857 71.5693V4H382.409V27.8417H402.056C410.569 27.8417 417.47 34.7503 417.47 43.2724V71.5693C417.47 80.0914 410.569 87 402.056 87H377.271ZM396.923 44.3966H382.412V70.4452H396.923V44.3966Z" fill="#F9F9F9"/>
<path fill-rule="evenodd" clip-rule="evenodd" d="M177.779 87C186.291 87 193.193 80.0914 193.193 71.5693V4H172.641V27.8417H152.993C144.481 27.8417 137.579 34.7503 137.579 43.2724V71.5693C137.579 80.0914 144.481 87 152.993 87H177.779ZM158.126 44.3966H172.637V70.4452H158.126V44.3966Z" fill="#F9F9F9"/>
<path fill-rule="evenodd" clip-rule="evenodd" d="M4 19.4306C4 10.9085 10.9011 4 19.414 4H52.8645C61.3774 4 68.2784 10.9085 68.2784 19.4307V45.274C68.2784 53.7961 61.3774 60.7046 52.8645 60.7046H52.4525L68.2787 87H45.6863L29.86 60.7046H26.5925V87H4V19.4306ZM45.6743 23.3689H26.6042V41.3357H45.6743V23.3689Z" fill="#F9F9F9"/>
<path fill-rule="evenodd" clip-rule="evenodd" d="M228.277 19.4306C228.277 10.9085 235.178 4 243.691 4H277.142C285.654 4 292.556 10.9085 292.556 19.4307V45.274C292.556 53.7961 285.654 60.7046 277.142 60.7046H276.73L292.556 87H269.963L254.137 60.7046H250.87V87H228.277V19.4306ZM269.951 23.3689H250.881V41.3357H269.951V23.3689Z" fill="#F9F9F9"/>
<path fill-rule="evenodd" clip-rule="evenodd" d="M314.813 27.8417C306.301 27.8417 299.399 34.7502 299.399 43.2724V71.5693C299.399 80.0914 306.301 87 314.813 87H339.599C348.111 87 355.013 80.0914 355.013 71.5693V43.2724C355.013 34.7502 348.112 27.8417 339.599 27.8417H314.813ZM334.466 44.3965H319.955V70.4451H334.466V44.3965Z" stroke="white" stroke-width="8" mask="url(#path-1-outside-1_1234_786)"/>
<path fill-rule="evenodd" clip-rule="evenodd" d="M75.1224 43.2724C75.1224 34.7502 82.0235 27.8417 90.5364 27.8417H115.322C123.834 27.8417 130.735 34.7502 130.735 43.2724V48.2951C130.735 56.8172 123.834 63.7257 115.322 63.7257H95.6786V70.4451H126.715V87H90.5372C82.0243 87 75.1232 80.0914 75.1232 71.5693L75.1224 43.2724ZM110.187 41.1075H95.6727V50.4599H110.187V41.1075Z" stroke="white" stroke-width="8" mask="url(#path-1-outside-1_1234_786)"/>
<path fill-rule="evenodd" clip-rule="evenodd" d="M439.728 27.8417C431.215 27.8417 424.314 34.7502 424.314 43.2724V71.5693C424.314 80.0914 431.215 87 439.728 87H464.513C473.026 87 479.927 80.0914 479.927 71.5693V43.2724C479.927 34.7502 473.026 27.8417 464.513 27.8417H439.728ZM459.38 44.3965H444.869V70.4451H459.38V44.3965Z" stroke="white" stroke-width="8" mask="url(#path-1-outside-1_1234_786)"/>
<path d="M486.771 71.5693C486.771 80.0914 493.672 87 502.185 87H524V70.4452H507.326V44.3966H524V27.8417H507.323V13.7948H486.771V71.5693Z" stroke="white" stroke-width="8" mask="url(#path-1-outside-1_1234_786)"/>
<path fill-rule="evenodd" clip-rule="evenodd" d="M377.271 87C368.758 87 361.857 80.0914 361.857 71.5693V4H382.409V27.8417H402.056C410.569 27.8417 417.47 34.7503 417.47 43.2724V71.5693C417.47 80.0914 410.569 87 402.056 87H377.271ZM396.923 44.3966H382.412V70.4452H396.923V44.3966Z" stroke="white" stroke-width="8" mask="url(#path-1-outside-1_1234_786)"/>
<path fill-rule="evenodd" clip-rule="evenodd" d="M177.779 87C186.291 87 193.193 80.0914 193.193 71.5693V4H172.641V27.8417H152.993C144.481 27.8417 137.579 34.7503 137.579 43.2724V71.5693C137.579 80.0914 144.481 87 152.993 87H177.779ZM158.126 44.3966H172.637V70.4452H158.126V44.3966Z" stroke="white" stroke-width="8" mask="url(#path-1-outside-1_1234_786)"/>
<path fill-rule="evenodd" clip-rule="evenodd" d="M4 19.4306C4 10.9085 10.9011 4 19.414 4H52.8645C61.3774 4 68.2784 10.9085 68.2784 19.4307V45.274C68.2784 53.7961 61.3774 60.7046 52.8645 60.7046H52.4525L68.2787 87H45.6863L29.86 60.7046H26.5925V87H4V19.4306ZM45.6743 23.3689H26.6042V41.3357H45.6743V23.3689Z" stroke="white" stroke-width="8" mask="url(#path-1-outside-1_1234_786)"/>
<path fill-rule="evenodd" clip-rule="evenodd" d="M228.277 19.4306C228.277 10.9085 235.178 4 243.691 4H277.142C285.654 4 292.556 10.9085 292.556 19.4307V45.274C292.556 53.7961 285.654 60.7046 277.142 60.7046H276.73L292.556 87H269.963L254.137 60.7046H250.87V87H228.277V19.4306ZM269.951 23.3689H250.881V41.3357H269.951V23.3689Z" stroke="white" stroke-width="8" mask="url(#path-1-outside-1_1234_786)"/>
</svg>
